HIERARCHY
ROOT SpineBase
{
  OFFSET 0.000000 0.000000 0.000000
  CHANNELS 6 Xposition Yposition Zposition Zrotation Xrotation Yrotation
  JOINT SpineMid
  {
    OFFSET -0.000000 25.362247 0.000000
    CHANNELS 3 Zrotation Xrotation Yrotation
    JOINT SpineShoulder
    {
      OFFSET -0.040701 18.927298 -0.573015
      CHANNELS 3 Zrotation Xrotation Yrotation
      JOINT Neck
      {
        OFFSET -0.050555 6.274107 -0.450228
        CHANNELS 3 Zrotation Xrotation Yrotation
        JOINT Head
        {
          OFFSET -1.844874 10.389028 1.120649
          CHANNELS 3 Zrotation Xrotation Yrotation
          End Site
          {
            OFFSET 0 0 0
          }
        }
      }
      JOINT ShoulderLeft
      {
        OFFSET -13.767523 -3.664905 2.359299
        CHANNELS 3 Zrotation Xrotation Yrotation
        JOINT ElbowLeft
        {
          OFFSET -0.363539 -15.402173 4.775332
          CHANNELS 3 Zrotation Xrotation Yrotation
          JOINT WristLeft
          {
            OFFSET 7.909289 0.522971 -16.790585
            CHANNELS 3 Zrotation Xrotation Yrotation
            JOINT HandLeft
            {
              OFFSET 4.207527 2.968977 -14.965721
              CHANNELS 3 Zrotation Xrotation Yrotation
              JOINT HandTipLeft
              {
                OFFSET 2.838376 0.373465 -2.555845
                CHANNELS 3 Zrotation Xrotation Yrotation
                End Site
                {
                  OFFSET 0 0 0
                }
              }
              JOINT ThumbLeft
              {
                OFFSET 3.391825 -0.891391 -1.052049
                CHANNELS 3 Zrotation Xrotation Yrotation
                End Site
                {
                  OFFSET 0 0 0
                }
              }
            }
          }
        }
      }
      JOINT ShoulderRight
      {
        OFFSET 12.492455 -2.471127 -5.296371
        CHANNELS 3 Zrotation Xrotation Yrotation
        JOINT ElbowRight
        {
          OFFSET 5.122623 -18.034784 -1.151711
          CHANNELS 3 Zrotation Xrotation Yrotation
          JOINT WristRight
          {
            OFFSET -17.742262 3.982074 -15.395723
            CHANNELS 3 Zrotation Xrotation Yrotation
            JOINT HandRight
            {
              OFFSET -8.060878 0.670958 -0.286812
              CHANNELS 3 Zrotation Xrotation Yrotation
              JOINT HandTipRight
              {
                OFFSET -5.829920 0.151749 0.070405
                CHANNELS 3 Zrotation Xrotation Yrotation
                End Site
                {
                  OFFSET 0 0 0
                }
              }
              JOINT ThumbRight
              {
                OFFSET -1.631170 -1.357059 0.821673
                CHANNELS 3 Zrotation Xrotation Yrotation
                End Site
                {
                  OFFSET 0 0 0
                }
              }
            }
          }
        }
      }
    }
  }
  JOINT HipLeft
  {
    OFFSET -5.524593 0.098086 -1.498937
    CHANNELS 3 Zrotation Xrotation Yrotation
    JOINT KneeLeft
    {
      OFFSET 2.398636 -36.576711 4.019787
      CHANNELS 3 Zrotation Xrotation Yrotation
      JOINT AnkleLeft
      {
        OFFSET 4.616883 -32.559457 6.193198
        CHANNELS 3 Zrotation Xrotation Yrotation
        JOINT FootLeft
        {
          OFFSET -3.837679 -2.668603 -12.258191
          CHANNELS 3 Zrotation Xrotation Yrotation
          End Site
          {
            OFFSET 0 0 0
          }
        }
      }
    }
  }
  JOINT HipRight
  {
    OFFSET 5.233784 1.205904 -4.428250
    CHANNELS 3 Zrotation Xrotation Yrotation
    JOINT KneeRight
    {
      OFFSET 4.738586 -34.851325 0.979494
      CHANNELS 3 Zrotation Xrotation Yrotation
      JOINT AnkleRight
      {
        OFFSET 1.411984 -33.980699 7.010506
        CHANNELS 3 Zrotation Xrotation Yrotation
        JOINT FootRight
        {
          OFFSET -2.554670 -3.019676 -11.142986
          CHANNELS 3 Zrotation Xrotation Yrotation
          End Site
          {
            OFFSET 0 0 0
          }
        }
      }
    }
  }
}
MOTION
Frames: 13
Frame Time: 0.033333
20.028182 74.864470 373.979191 0.000000 0.000000 15.231374 -0.000000 0.000000 -15.231374 -0.000000 0.000000 0.000000 -0.000000 0.000000 0.000000 0.000000 0.000000 0.000000 -0.000000 0.000000 0.000000 -0.000000 0.000000 0.000000 -0.000000 0.000000 0.000000 -0.000000 0.000000 0.000000 0.000000 0.000000 0.000000 0.000000 0.000000 0.000000 -0.000000 0.000000 0.000000 -0.000000 0.000000 0.000000 -0.000000 0.000000 0.000000 -0.000000 0.000000 0.000000 0.000000 0.000000 0.000000 0.000000 0.000000 0.000000 -0.000000 0.000000 -15.231374 -0.000000 0.000000 0.000000 -0.000000 0.000000 0.000000 0.000000 0.000000 0.000000 -0.000000 0.000000 -15.231374 -0.000000 0.000000 0.000000 -0.000000 0.000000 0.000000 0.000000 0.000000 0.000000
20.076767 74.871432 373.985315 -0.027363 -0.035668 15.037746 0.035680 0.027347 -15.037763 -0.000000 0.000000 0.000000 -0.000000 0.000000 0.000000 0.000000 0.000000 0.000000 -0.000000 0.000000 0.000000 -0.275226 -0.680842 1.188875 -0.148782 0.861457 -3.670243 1.047645 -0.085376 6.411262 0.000000 0.000000 0.000000 0.000000 0.000000 0.000000 -0.000000 0.000000 0.000000 0.316557 0.085036 1.587450 0.756653 -0.445919 -4.827109 -3.794561 0.079697 -1.807811 0.000000 0.000000 0.000000 0.000000 0.000000 0.000000 0.035680 0.027347 -15.037763 -0.000000 0.000000 0.000000 2.362085 -4.442163 -5.510430 0.000000 0.000000 0.000000 0.035680 0.027347 -15.037763 -0.000000 0.000000 0.000000 -0.000000 0.000000 0.000000 0.000000 0.000000 0.000000
20.121342 74.879972 373.988209 -0.054482 -0.063282 14.901756 0.068923 0.047143 -14.901815 -0.000000 0.000000 0.000000 0.669042 0.644128 0.038391 0.000000 0.000000 0.000000 0.009438 -0.981724 0.026110 -0.505522 -0.279078 2.194861 -0.100037 1.980689 -6.709217 2.401934 0.162874 12.379098 0.000000 0.000000 0.000000 0.000000 0.000000 0.000000 -0.000000 0.000000 0.000000 0.561785 0.246328 3.223852 0.695856 -1.001082 -10.235980 -6.972392 0.020630 -2.925649 0.000000 0.000000 0.000000 0.000000 0.000000 0.000000 0.068923 0.047143 -14.901815 -0.000000 0.000000 0.000000 4.429748 -9.441441 -11.261166 0.000000 0.000000 0.000000 0.068923 0.047143 -14.901815 -0.000000 0.000000 0.000000 -0.000000 0.000000 0.000000 0.000000 0.000000 0.000000
20.161906 74.890088 373.987875 -0.081364 -0.082845 14.823311 0.099851 0.059272 -14.823421 -0.000000 0.000000 0.000000 0.912255 0.851398 0.045908 0.000000 0.000000 0.000000 -0.030326 -1.319444 0.021316 -0.636926 -0.417416 3.062928 0.176985 3.340175 -9.090343 3.980989 0.853744 17.710023 0.000000 0.000000 0.000000 0.000000 0.000000 0.000000 0.692113 0.454231 0.081917 0.031481 0.028397 4.802487 -0.357517 -1.486053 -16.349885 -9.352746 -0.205825 -3.224276 0.000000 0.000000 0.000000 0.000000 0.000000 0.000000 0.099851 0.059272 -14.823421 -0.000000 0.000000 0.000000 5.970648 -14.475121 -16.751032 0.000000 0.000000 0.000000 0.099851 0.059272 -14.823421 -0.000000 0.000000 0.000000 -0.000000 0.000000 0.000000 0.000000 0.000000 0.000000
20.198459 74.901782 373.984311 -0.108018 -0.094355 14.802330 0.128540 0.063626 -14.802490 -0.000000 0.000000 0.000000 1.095604 0.983025 0.046862 0.000000 0.000000 0.000000 -0.099996 -1.554376 0.004312 -0.692984 -0.552326 3.775182 0.695959 4.927629 -10.798917 5.690103 2.012897 22.195409 0.000000 0.000000 0.000000 0.000000 0.000000 0.000000 0.807434 0.628294 0.122185 -0.015137 0.161480 6.418627 -2.601521 -1.617044 -23.305732 -10.696211 -0.607195 -2.561588 0.000000 0.000000 0.000000 0.000000 0.000000 0.000000 0.128540 0.063626 -14.802490 -0.000000 0.000000 0.000000 6.911078 -18.875964 -21.412238 0.000000 0.000000 0.000000 0.128540 0.063626 -14.802490 0.415605 0.777994 0.115394 -0.417209 -0.777135 -0.121045 0.000000 0.000000 0.000000
20.231001 74.915052 373.977518 -0.134451 -0.097805 14.838753 0.155015 0.060110 -14.838949 -0.000000 0.000000 0.000000 1.219578 1.039403 0.041839 0.000000 0.000000 0.000000 -0.199639 -1.686133 -0.024919 -0.677149 -0.682833 4.331024 1.454196 6.738162 -11.827855 7.451116 3.561930 25.633745 0.000000 0.000000 0.000000 0.000000 0.000000 0.000000 0.867410 0.814295 0.169298 -0.106152 0.346340 7.995325 -6.209365 -0.968700 -31.181461 -10.710226 -1.135559 -0.816942 0.000000 0.000000 0.000000 0.000000 0.000000 0.000000 0.155015 0.060110 -14.838949 -0.000000 0.000000 0.000000 7.363474 -22.074821 -24.747844 0.000000 0.000000 0.000000 0.155015 0.060110 -14.838949 0.458221 0.867977 0.127310 -0.460201 -0.866929 -0.134262 0.000000 0.000000 0.000000
20.257652 74.917267 373.966605 -0.166452 -0.102177 14.835837 0.187066 0.056150 -14.836077 -0.000000 0.000000 0.000000 1.359047 1.059585 0.028903 0.000000 0.000000 0.000000 -0.331877 -1.127776 -0.079296 -0.700114 -1.645909 4.632742 2.537696 9.077670 -12.340760 10.104379 7.237757 32.141583 0.000000 0.000000 0.000000 0.000000 0.000000 0.000000 1.074320 0.850568 0.164501 0.811676 0.122058 10.979944 -15.013138 3.804497 -46.774638 -8.361836 -2.233761 4.718740 0.000000 0.000000 0.000000 0.000000 0.000000 0.000000 0.187066 0.056150 -14.836077 -0.000000 0.000000 0.000000 7.396827 -22.386876 -25.993294 0.000000 0.000000 0.000000 0.187066 0.056150 -14.836077 0.422965 0.846891 0.119491 -0.424776 -0.845984 -0.125753 0.000000 0.000000 0.000000
20.281085 74.933929 373.947753 -0.196177 -0.082968 14.972700 0.210952 0.029466 -14.972897 -0.000000 0.000000 0.000000 1.413187 0.981272 0.009679 0.000000 0.000000 0.000000 -0.432523 -0.913874 -0.115684 -0.498486 -1.627471 4.697275 3.076792 9.918047 -11.230078 12.060782 9.807784 30.567679 0.000000 0.000000 0.000000 0.000000 0.000000 0.000000 1.109007 0.979193 0.197187 0.828768 0.207228 12.104425 -22.709840 9.909251 -56.079444 -3.460155 -2.174349 9.509284 0.000000 0.000000 0.000000 0.000000 0.000000 0.000000 0.210952 0.029466 -14.972897 -0.000000 0.000000 0.000000 7.435851 -22.835291 -26.946768 0.000000 0.000000 0.000000 0.919673 0.587709 -14.863354 -0.114457 0.166104 0.010200 -0.427576 -0.887347 -0.128211 0.000000 0.000000 0.000000
20.265058 75.022944 373.944701 -0.263642 -0.045996 15.402302 0.266390 -0.025678 -15.402348 -0.000000 0.000000 0.000000 1.254332 0.681839 -0.021634 0.000000 0.000000 0.000000 -0.526102 -1.050369 -0.142724 -0.294911 -1.244696 4.839212 4.239696 12.011876 -9.563213 14.518226 13.008362 32.463630 0.000000 0.000000 0.000000 0.000000 0.000000 0.000000 1.061031 0.963899 0.196486 -0.740652 1.218073 11.390583 -24.716356 11.429459 -58.729272 0.753237 -0.241314 9.067028 0.000000 0.000000 0.000000 0.000000 0.000000 0.000000 0.266390 -0.025678 -15.402348 -0.000000 0.000000 0.000000 7.401568 -22.433867 -25.778421 0.000000 0.000000 0.000000 1.119082 0.542337 -15.282150 -0.251299 0.101280 -0.003003 -0.421558 -0.873925 -0.126321 0.000000 0.000000 0.000000
20.299398 75.071040 373.923604 -0.305983 0.062720 15.846653 0.277229 -0.143888 -15.846138 -0.927590 0.154695 -0.064077 2.434371 -0.289262 -0.114107 0.000000 0.000000 0.000000 0.927765 -0.153637 0.066573 -0.692334 -1.995298 4.807290 6.973367 18.284364 -12.293393 15.681169 10.365244 29.109858 0.000000 0.000000 0.000000 0.000000 0.000000 0.000000 1.390674 1.212585 0.419883 -3.648834 3.302003 11.225944 -22.612390 9.040440 -58.515808 -1.961991 -2.183947 9.650846 0.000000 0.000000 0.000000 0.000000 0.000000 0.000000 0.277229 -0.143888 -15.846138 -0.000000 0.000000 0.000000 7.018203 -18.599998 -25.520913 0.000000 0.000000 0.000000 1.132064 0.388135 -15.727678 -0.262542 0.084684 -0.002186 -0.416106 -0.828480 -0.123116 0.000000 0.000000 0.000000
20.365263 75.034567 373.900248 -0.156764 0.251317 16.005836 0.081391 -0.284799 -16.005289 -0.826130 0.143576 -0.057100 1.392530 -0.930490 -0.136492 0.000000 0.000000 0.000000 0.704591 -1.429285 0.049755 -0.762434 -0.903704 2.717572 8.776968 23.874030 -6.556325 18.807602 9.293025 23.458756 0.000000 0.000000 0.000000 0.000000 0.000000 0.000000 0.529437 2.277501 0.770680 -7.439160 5.416610 9.661535 -18.244626 2.966559 -50.768206 3.074935 0.725442 6.861145 0.000000 0.000000 0.000000 0.000000 0.000000 0.000000 0.081391 -0.284799 -16.005289 -0.000000 0.000000 0.000000 8.037611 -27.089319 -22.151091 0.000000 0.000000 0.000000 0.843618 0.226716 -15.892905 -0.153476 0.097608 0.010415 -0.439729 -0.798199 -0.126789 0.000000 0.000000 0.000000
20.467115 74.964715 373.852957 -0.142895 0.163455 16.297462 0.091285 -0.196986 -16.297102 -0.868380 -0.234827 -0.065982 0.868117 0.235800 0.062416 0.000000 0.000000 0.000000 -0.119070 -3.136146 -0.187909 0.377805 1.734967 3.684457 9.818222 25.966407 -3.997938 18.915822 6.154028 21.009476 0.000000 0.000000 0.000000 0.000000 0.000000 0.000000 -1.502143 5.499049 1.833925 -11.528448 7.343621 6.782212 -11.888046 -4.064406 -46.482907 -6.408214 -1.933513 2.009436 0.000000 0.000000 0.000000 0.000000 0.000000 0.000000 0.091285 -0.196986 -16.297102 -0.000000 0.000000 0.000000 9.094732 -33.394813 -20.698486 0.000000 0.000000 0.000000 0.091285 -0.196986 -16.297102 0.494452 0.763141 0.130584 -0.496234 -0.761984 -0.137177 0.000000 0.000000 0.000000
20.600600 74.873799 373.799759 -0.267127 -0.159031 16.858200 -0.783626 -0.325646 -16.890573 -0.321448 -0.195448 -0.067172 2.700035 3.988363 0.414312 0.000000 0.000000 0.000000 -0.250942 -3.889017 -0.299896 0.959088 3.047797 6.444243 12.127474 28.562030 -2.939020 15.771766 -0.366164 20.384402 0.000000 0.000000 0.000000 0.000000 0.000000 0.000000 -4.262979 10.442113 3.732588 -14.388810 8.279517 4.290358 -8.372784 -9.425560 -41.693086 -8.112549 -1.433444 -1.710438 0.000000 0.000000 0.000000 0.000000 0.000000 0.000000 -0.503833 0.504042 -16.941548 0.895739 -0.175892 0.088224 9.659844 -36.581053 -20.400505 0.000000 0.000000 0.000000 0.301768 0.074727 -16.858767 0.498016 0.715662 0.129517 -0.499672 -0.714507 -0.135743 0.000000 0.000000 0.000000
